<?xml version="1.0" encoding="utf-8"?>
<!-- Generator: Adobe Illustrator 24.0.2, SVG Export Plug-In . SVG Version: 6.00 Build 0)  -->
<svg version="1.1" id="OBJECTS" xmlns="http://www.w3.org/2000/svg" xmlns:xlink="http://www.w3.org/1999/xlink" x="0px" y="0px"
	 viewBox="0 0 750 500" style="enable-background:new 0 0 750 500;" xml:space="preserve">
<style type="text/css">
	.st0{clip-path:url(#SVGID_2_);}
	.st1{fill:url(#SVGID_3_);}
	.st2{fill:url(#SVGID_4_);}
	.st3{fill:url(#SVGID_5_);}
	.st4{fill:url(#SVGID_6_);}
	.st5{fill:url(#SVGID_7_);}
	.st6{fill:url(#SVGID_8_);}
	.st7{fill:url(#SVGID_9_);}
	.st8{fill:url(#SVGID_10_);}
	.st9{fill:url(#SVGID_11_);}
	.st10{fill:url(#SVGID_12_);}
	.st11{fill:url(#SVGID_13_);}
	.st12{fill:url(#SVGID_14_);}
	.st13{fill:url(#SVGID_15_);}
</style>
<g>
	<defs>
		<rect id="SVGID_1_" width="750" height="500"/>
	</defs>
	<clipPath id="SVGID_2_">
		<use xlink:href="#SVGID_1_"  style="overflow:visible;"/>
	</clipPath>
	<g class="st0">
		
			<image style="overflow:visible;opacity:0.25;" width="241" height="241" xlink:href="C3CEFFC0.png"  transform="matrix(1 0 0 1 -9 24)">
		</image>
		<g>
			<linearGradient id="SVGID_3_" gradientUnits="userSpaceOnUse" x1="171.5754" y1="87.4877" x2="-18.5052" y2="233.2879">
				<stop  offset="0" style="stop-color:#FFFFFF"/>
				<stop  offset="1" style="stop-color:#D0D0D1"/>
			</linearGradient>
			<polygon class="st1" points="115.5,220.5 25.5,130.5 115.5,40.5 205.5,130.5 			"/>
		</g>
	</g>
	<g class="st0">
		
			<image style="overflow:visible;opacity:0.25;" width="241" height="241" xlink:href="C3CEFFC1.png"  transform="matrix(1 0 0 1 -9 252)">
		</image>
		<g>
			<linearGradient id="SVGID_4_" gradientUnits="userSpaceOnUse" x1="221.6521" y1="277.0766" x2="31.5715" y2="422.8769">
				<stop  offset="0" style="stop-color:#FFFFFF"/>
				<stop  offset="1" style="stop-color:#D0D0D1"/>
			</linearGradient>
			<polygon class="st2" points="115.5,448.5 25.5,358.5 115.5,268.5 205.5,358.5 			"/>
		</g>
	</g>
	<g class="st0">
		
			<image style="overflow:visible;opacity:0.25;" width="241" height="241" xlink:href="C3CEFFC7.png"  transform="matrix(1 0 0 1 625 -62)">
		</image>
		<g>
			
				<linearGradient id="SVGID_5_" gradientUnits="userSpaceOnUse" x1="855.6521" y1="-36.9234" x2="665.5715" y2="108.8768" gradientTransform="matrix(-1 0 0 -1 1499 89)">
				<stop  offset="0" style="stop-color:#FFFFFF"/>
				<stop  offset="1" style="stop-color:#D0D0D1"/>
			</linearGradient>
			<polygon class="st3" points="749.5,-45.5 839.5,44.5 749.5,134.5 659.5,44.5 			"/>
		</g>
	</g>
	<g class="st0">
		
			<image style="overflow:visible;opacity:0.25;" width="519" height="519" xlink:href="C3CEFFC2.png"  transform="matrix(1 0 0 1 -245 -225)">
		</image>
		<g>
			<linearGradient id="SVGID_6_" gradientUnits="userSpaceOnUse" x1="176.3427" y1="-12.7906" x2="-417.6551" y2="112.4894">
				<stop  offset="0" style="stop-color:#B03361"/>
				<stop  offset="0.729" style="stop-color:#FF87CB"/>
				<stop  offset="0.9972" style="stop-color:#FF87CB"/>
			</linearGradient>
			<path class="st4" d="M18.5-208.5l-229,229l229,229l229-229L18.5-208.5z M-167,20.5L18.5-165L204,20.5L18.5,206L-167,20.5z"/>
		</g>
	</g>
	<g class="st0">
		
			<image style="overflow:visible;opacity:0.25;" width="519" height="519" xlink:href="C3CEFFC3.png"  transform="matrix(1 0 0 1 525 -201)">
		</image>
		<g>
			<linearGradient id="SVGID_7_" gradientUnits="userSpaceOnUse" x1="946.3427" y1="11.2094" x2="352.3449" y2="136.4894">
				<stop  offset="0" style="stop-color:#B03361"/>
				<stop  offset="0.729" style="stop-color:#FF87CB"/>
				<stop  offset="0.9972" style="stop-color:#FF87CB"/>
			</linearGradient>
			<path class="st5" d="M788.5-184.5l-229,229l229,229l229-229L788.5-184.5z M603,44.5L788.5-141L974,44.5L788.5,230L603,44.5z"/>
		</g>
	</g>
	<g class="st0">
		
			<image style="overflow:visible;opacity:0.25;" width="519" height="519" xlink:href="C3CEFFCE.png"  transform="matrix(1 0 0 1 -245 230)">
		</image>
		<g>
			<linearGradient id="SVGID_8_" gradientUnits="userSpaceOnUse" x1="268.2191" y1="422.8318" x2="-325.7787" y2="548.1118">
				<stop  offset="0" style="stop-color:#B03361"/>
				<stop  offset="0.729" style="stop-color:#FF87CB"/>
				<stop  offset="0.9972" style="stop-color:#FF87CB"/>
			</linearGradient>
			<path class="st6" d="M18.5,246.5l-229,229l229,229l229-229L18.5,246.5z M-167,475.5L18.5,290L204,475.5L18.5,661L-167,475.5z"/>
		</g>
	</g>
	<g class="st0">
		
			<image style="overflow:visible;opacity:0.25;" width="755" height="755" xlink:href="C3CEFFCF.png"  transform="matrix(1 0 0 1 -68 261)">
		</image>
		<g>
			<linearGradient id="SVGID_9_" gradientUnits="userSpaceOnUse" x1="692.4406" y1="544.5777" x2="-208.9316" y2="734.686">
				<stop  offset="0" style="stop-color:#B03361"/>
				<stop  offset="0.729" style="stop-color:#FF87CB"/>
				<stop  offset="0.9972" style="stop-color:#FF87CB"/>
			</linearGradient>
			<path class="st7" d="M313.5,277L-34,624.5L313.5,972L661,624.5L313.5,277z M32,624.5L313.5,343L595,624.5L313.5,906L32,624.5z"/>
		</g>
	</g>
	<g class="st0">
		
			<image style="overflow:visible;opacity:0.25;" width="519" height="519" xlink:href="C3CEFFC4.png"  transform="matrix(1 0 0 1 -264 1)">
		</image>
		<g>
			<linearGradient id="SVGID_10_" gradientUnits="userSpaceOnUse" x1="-24.7635" y1="254.9029" x2="224.7165" y2="168.503">
				<stop  offset="0.1788" style="stop-color:#F77F57"/>
				<stop  offset="0.2114" style="stop-color:#F88558"/>
				<stop  offset="0.436" style="stop-color:#FBA75C"/>
				<stop  offset="0.6482" style="stop-color:#FDC15F"/>
				<stop  offset="0.8411" style="stop-color:#FFD060"/>
				<stop  offset="0.9972" style="stop-color:#FFD561"/>
			</linearGradient>
			<path class="st8" d="M-0.5,17.5l-229,229l229,229l229-229L-0.5,17.5z M-202,246.5L-0.5,45L201,246.5L-0.5,448L-202,246.5z"/>
		</g>
	</g>
	<g class="st0">
		
			<image style="overflow:visible;opacity:0.25;" width="519" height="519" xlink:href="C3CEFFC5.png"  transform="matrix(1 0 0 1 560 -54)">
		</image>
		<g>
			
				<linearGradient id="SVGID_11_" gradientUnits="userSpaceOnUse" x1="1394.639" y1="117.2966" x2="846.001" y2="188.5766" gradientTransform="matrix(-1 0 0 -1 1647 383)">
				<stop  offset="0.1788" style="stop-color:#F77F57"/>
				<stop  offset="0.4218" style="stop-color:#F9955A"/>
				<stop  offset="0.9245" style="stop-color:#FECC60"/>
				<stop  offset="0.9972" style="stop-color:#FFD561"/>
			</linearGradient>
			<path class="st9" d="M823.5,420.5l229-229l-229-229l-229,229L823.5,420.5z M1025,191.5L823.5,393L622,191.5L823.5-10L1025,191.5z
				"/>
		</g>
	</g>
	<g class="st0">
		
			<image style="overflow:visible;opacity:0.25;" width="319" height="319" xlink:href="4CEAF71F.png"  transform="matrix(1 0 0 1 38 299)">
		</image>
		<g>
			<linearGradient id="SVGID_12_" gradientUnits="userSpaceOnUse" x1="599.2891" y1="392.8186" x2="50.6484" y2="464.0989">
				<stop  offset="0.1788" style="stop-color:#F77F57"/>
				<stop  offset="0.4218" style="stop-color:#F9955A"/>
				<stop  offset="0.9245" style="stop-color:#FECC60"/>
				<stop  offset="0.9972" style="stop-color:#FFD561"/>
			</linearGradient>
			<path class="st10" d="M201.5,315L72,444.5L201.5,574L331,444.5L201.5,315z M96.6,444.5l104.9-104.9l104.9,104.9L201.5,549.4
				L96.6,444.5z"/>
		</g>
	</g>
	<g class="st0">
		
			<image style="overflow:visible;opacity:0.25;" width="319" height="319" xlink:href="4CEAF71D.png"  transform="matrix(1 0 0 1 332 385)">
		</image>
		<g>
			<linearGradient id="SVGID_13_" gradientUnits="userSpaceOnUse" x1="893.2891" y1="478.8186" x2="344.6484" y2="550.0989">
				<stop  offset="0.1788" style="stop-color:#F77F57"/>
				<stop  offset="0.4218" style="stop-color:#F9955A"/>
				<stop  offset="0.9245" style="stop-color:#FECC60"/>
				<stop  offset="0.9972" style="stop-color:#FFD561"/>
			</linearGradient>
			<path class="st11" d="M495.5,401L366,530.5L495.5,660L625,530.5L495.5,401z M390.6,530.5l104.9-104.9l104.9,104.9L495.5,635.4
				L390.6,530.5z"/>
		</g>
	</g>
	<g class="st0">
		
			<image style="overflow:visible;opacity:0.25;" width="319" height="319" xlink:href="4CEAF71B.png"  transform="matrix(1 0 0 1 38 -101)">
		</image>
		<g>
			<linearGradient id="SVGID_14_" gradientUnits="userSpaceOnUse" x1="103.5442" y1="102.5327" x2="360.5844" y2="-49.7476">
				<stop  offset="0.1788" style="stop-color:#F77F57"/>
				<stop  offset="0.4218" style="stop-color:#F9955A"/>
				<stop  offset="0.9245" style="stop-color:#FECC60"/>
				<stop  offset="0.9972" style="stop-color:#FFD561"/>
			</linearGradient>
			<path class="st12" d="M201.5-85L72,44.5L201.5,174L331,44.5L201.5-85z M96.6,44.5L201.5-60.4L306.4,44.5L201.5,149.4L96.6,44.5z"
				/>
		</g>
	</g>
	<g class="st0">
		
			<image style="overflow:visible;opacity:0.25;" width="241" height="241" xlink:href="4CEAF715.png"  transform="matrix(1 0 0 1 -125 140)">
		</image>
		<g>
			<linearGradient id="SVGID_15_" gradientUnits="userSpaceOnUse" x1="-111.9077" y1="322.7576" x2="90.0524" y2="184.5177">
				<stop  offset="0.1788" style="stop-color:#F77F57"/>
				<stop  offset="0.4218" style="stop-color:#F9955A"/>
				<stop  offset="0.9245" style="stop-color:#FECC60"/>
				<stop  offset="0.9972" style="stop-color:#FFD561"/>
			</linearGradient>
			<polygon class="st13" points="-0.5,336.5 -90.5,246.5 -0.5,156.5 89.5,246.5 			"/>
		</g>
	</g>
</g>
</svg>
